# xmcd
#
# Track frame offsets:
#	150
#	28581
#	50913
#	110182
#	177331
#	200825
#	230273
#
# Disc length: 3832 seconds
#
# Revision: 1
# Processed by: cddbd v1.5.2PL0 Copyright (c) Steve Scherf et al.
# Submitted via: audiograbber 1.83.01
#
DISCID=660ef607
DTITLE=Grateful Dead - 69-12-29 Boston Tea Party, Boston MA
DYEAR=1900
DGENRE=
TTITLE0=Cumberland Blues
TTITLE1=Casey Jones
TTITLE2=Good Lovin
TTITLE3=Dancing In The Streets
TTITLE4=Dire Wolf
TTITLE5=St Stephen
TTITLE6=Not Fade Away
EXTD=
EXTT0=
EXTT1=
EXTT2=
EXTT3=
EXTT4=
EXTT5=
EXTT6=
PLAYORDER=
